<svg xmlns="http://www.w3.org/2000/svg" viewBox="0 0 61.19 69.94"><defs><style>.cls-1{fill:#404953;}</style></defs><title>报警</title><g id="图层_2" data-name="图层 2"><g id="图层_1-2" data-name="图层 1"><path class="cls-1" d="M4.37,64.69H56.82a2.63,2.63,0,0,1,.26,5.24H4.37a2.62,2.62,0,0,1-.25-5.23l.25,0h0ZM30.6,14.86A18.36,18.36,0,0,1,49,33.22V58.57a2.63,2.63,0,0,1-2.63,2.63H14.86a2.62,2.62,0,0,1-2.62-2.63V33.22A18.36,18.36,0,0,1,30.6,14.86ZM28.29,27.59l-5.24,9.62a2.62,2.62,0,0,0,2.3,3.88h6.07l-3.13,5.74a2.62,2.62,0,1,0,4.61,2.51l5.24-9.62a2.6,2.6,0,0,0,0-2.59,2.63,2.63,0,0,0-2.26-1.29H29.77l3.13-5.73a2.63,2.63,0,0,0-4.61-2.52Zm-20.42-4a2.63,2.63,0,0,1,.25,5.24H2.62a2.62,2.62,0,0,1-.25-5.23l.25,0Zm50.7,0a2.63,2.63,0,0,1,.25,5.24H53.33a2.62,2.62,0,0,1-.26-5.23l.26,0Zm-43.8-16,.2.18,3.49,3.5A2.62,2.62,0,0,1,15,15.15l-.2-.18-3.49-3.5a2.62,2.62,0,0,1,3.51-3.89Zm35.17.18a2.62,2.62,0,0,1,0,3.71L46.44,15a2.62,2.62,0,1,1-3.71-3.71l3.5-3.5a2.62,2.62,0,0,1,3.71,0ZM30.6,0a2.63,2.63,0,0,1,2.61,2.37v5.5A2.62,2.62,0,0,1,28,8.12l0-.25V2.62A2.63,2.63,0,0,1,30.6,0Z"/></g></g></svg>